<?xml version="1.0" encoding="utf-8"?>
<!-- Generator: Adobe Illustrator 24.1.2, SVG Export Plug-In . SVG Version: 6.00 Build 0)  -->
<svg version="1.1" id="Layer_2_1_" xmlns="http://www.w3.org/2000/svg" xmlns:xlink="http://www.w3.org/1999/xlink" x="0px" y="0px"
	 viewBox="0 0 56.7 56.7" style="enable-background:new 0 0 56.7 56.7;" xml:space="preserve">
<path d="M31.7,56.7H27c0-2.5,0-5,0-7.4c0-4.2-1.5-8.2-4.1-11.5c-2.1,1.9-5.1,2.8-7.9,2.3c-4.6-0.7-9.3-5.2-11.8-10.8
	c-4.6-10-3.8-18.5-0.3-29.2C3,0.1,3.1,0.1,3.1,0L2.8,0.4c0.7,0.7,1.4,1.5,2,2.2C6.6,4.7,9,6.2,11.6,6.9c3.2,1.2,6.2,2.7,9.1,4.5
	c4.3,2.8,6.2,6.7,6.6,13.4c0.1,2.3-0.2,4.6-1,6.8c-1-1.2-1.9-2.3-2.9-3.4c-2.6-2.9-5.7-4.6-8.7-6.5c-2.4-1.4-4.5-3.2-6.2-5.4
	c-1-1.4-1.9-3-2.8-4.5C5.8,12.3,5.9,12.6,6,13c1.3,3.7,3.4,6.9,6.3,9.5c2,1.8,4.2,3.4,6.2,5.1c4.4,3.8,8,8.4,10.5,13.6
	c1.1,2.1,1.9,4.5,2.9,6.9c0,0,0,0,0,0c0.1-0.2,0.2-0.4,0.3-0.6c2.1-4.2,5-8,8.6-11.2c1.6-1.4,3.3-2.8,4.8-4.3
	c2.8-2.8,4.9-6.2,6.1-10c0.1-0.3,0.2-0.6,0.2-0.8c-1.6,3.9-4.4,7.2-7.9,9.5c-0.9,0.6-1.8,1.2-2.7,1.8c-2.4,1.6-4.6,3.6-6.4,5.9
	c-0.6,0.8-1.1,1.7-1.6,2.5l-0.4-0.2c-0.3-1.9-0.5-3.7-0.7-5.6c-0.2-7.4,2.5-13.4,7.4-16.2c2.2-1.2,4.5-2.2,6.9-3
	c3.1-1,5.8-3.2,7.3-6.2c0.1-0.3,0.3-0.5,0.5-0.8l0.4,1.1c1.1,3.6,1.8,7.3,1.9,11c0.4,7.3-0.7,14.1-3.7,20.2
	c-3.6,7.4-11.6,10.4-16.8,5.5C34,49.5,31.8,52.2,31.7,56.7z"/>
</svg>
