<?xml version="1.0" encoding="UTF-8"?>
<!DOCTYPE svg PUBLIC "-//W3C//DTD SVG 1.1//EN" "http://www.w3.org/Graphics/SVG/1.1/DTD/svg11.dtd">
<!-- Creator: CorelDRAW -->
<svg xmlns="http://www.w3.org/2000/svg" xml:space="preserve" width="2048px" height="2048px" style="shape-rendering:geometricPrecision; text-rendering:geometricPrecision; image-rendering:optimizeQuality; fill-rule:evenodd; clip-rule:evenodd"
viewBox="0 0 2048 2048"
 xmlns:xlink="http://www.w3.org/1999/xlink">
 <defs>
  <style type="text/css">
   <![CDATA[
    .fil1 {fill:none}
    .fil0 {fill:#212121;fill-rule:nonzero}
   ]]>
  </style>
 </defs>
 <g id="Layer_x0020_1">
  <metadata id="CorelCorpID_0Corel-Layer"/>
  <path class="fil0" d="M461.935 661.732l290.759 0 36.0544 -108.447 30.2504 10.0004 -30.3662 -10.0961c4.5378,-13.65 17.3835,-22.2012 31.05,-21.9047l409.317 0c15.215,0 27.9496,10.6193 31.1977,24.8504l35.1071 105.597 290.759 0c56.6658,0 108.158,23.1591 145.468,60.4689 37.3099,37.3099 60.4689,88.8036 60.4689,145.469l0 716.221c0,56.6658 -23.1591,108.16 -60.4689,145.469 -37.3099,37.3099 -88.8024,60.4689 -145.468,60.4689l-1124.13 0c-56.6658,0 -108.158,-23.1591 -145.468,-60.4689 -37.3099,-37.3099 -60.4689,-88.8036 -60.4689,-145.469l0 -716.221c0,-56.6658 23.1591,-108.16 60.4689,-145.469 37.3099,-37.3099 88.8024,-60.4689 145.468,-60.4689zm313.695 64.0016l-313.695 0c-39,0 -74.478,15.978 -100.218,41.7177 -25.7398,25.7398 -41.7177,61.2189 -41.7177,100.219l0 716.221c0,39 15.978,74.4792 41.7177,100.219 25.7398,25.7398 61.2178,41.7177 100.218,41.7177l1124.13 0c39,0 74.478,-15.978 100.218,-41.7177 25.7398,-25.7398 41.7177,-61.2189 41.7177,-100.219l0 -716.221c0,-39 -15.978,-74.4792 -41.7177,-100.219 -25.7398,-25.7398 -61.2178,-41.7177 -100.218,-41.7177l-313.011 0c-13.6665,0.296457 -26.5122,-8.25473 -31.05,-21.9047l30.3662 -10.0961 -30.2504 10.0004 -36.0544 -108.447 -364.129 0 -35.1071 105.597c-3.24803,14.2311 -15.9827,24.8504 -31.1977,24.8504z"/>
  <path class="fil0" d="M1024 861.288c100.648,0 191.772,40.7989 257.733,106.76 65.9611,65.9623 106.76,157.086 106.76,257.733 0,100.648 -40.7989,191.772 -106.76,257.733 -65.9611,65.9611 -157.086,106.76 -257.733,106.76 -100.648,0 -191.772,-40.7989 -257.733,-106.76 -65.9611,-65.9611 -106.76,-157.086 -106.76,-257.733 0,-100.648 40.7989,-191.771 106.76,-257.733 65.9611,-65.9611 157.086,-106.76 257.733,-106.76zm212.483 152.01c-54.3756,-54.3756 -129.501,-88.0087 -212.483,-88.0087 -82.982,0 -158.107,33.6331 -212.483,88.0087 -54.3745,54.3756 -88.0087,129.501 -88.0087,212.483 0,82.982 33.6331,158.107 88.0087,212.483 54.3756,54.3756 129.501,88.0087 212.483,88.0087 82.982,0 158.107,-33.6331 212.483,-88.0087 54.3756,-54.3756 88.0087,-129.501 88.0087,-212.483 0,-82.982 -33.6343,-158.107 -88.0087,-212.483z"/>
  <path class="fil0" d="M1024 1034.34c52.8603,0 100.722,21.4311 135.366,56.0752 34.6441,34.6441 56.0752,82.506 56.0752,135.366 0,52.8603 -21.4311,100.722 -56.0752,135.366 -34.6441,34.6441 -82.506,56.0752 -135.366,56.0752 -52.8603,0 -100.722,-21.4311 -135.366,-56.0752 -34.6441,-34.6441 -56.0752,-82.506 -56.0752,-135.366 0,-52.8603 21.4311,-100.722 56.0752,-135.366 34.6441,-34.6441 82.506,-56.0752 135.366,-56.0752zm90.1158 101.326c-23.0587,-23.0587 -54.9213,-37.324 -90.1158,-37.324 -35.1945,0 -67.0571,14.2654 -90.1158,37.324 -23.0587,23.0587 -37.324,54.9213 -37.324,90.1158 0,35.1945 14.2654,67.0571 37.324,90.1158 23.0587,23.0587 54.9213,37.324 90.1158,37.324 35.1945,0 67.0571,-14.2654 90.1158,-37.324 23.0587,-23.0587 37.324,-54.9213 37.324,-90.1158 0,-35.1945 -14.2654,-67.0571 -37.324,-90.1158z"/>
  <path class="fil0" d="M574.741 617.038c0,-17.6728 -14.328,-32.0008 -32.0008,-32.0008 -17.6728,0 -32.0008,14.328 -32.0008,32.0008l0 76.6949c0,17.6728 14.328,32.0008 32.0008,32.0008 17.6728,0 32.0008,-14.328 32.0008,-32.0008l0 -76.6949z"/>
  <path class="fil0" d="M1407.74 792.542c-17.6728,0 -32.0008,14.328 -32.0008,32.0008 0,17.6728 14.328,32.0008 32.0008,32.0008l190.001 0c17.6728,0 32.0008,-14.328 32.0008,-32.0008 0,-17.6728 -14.328,-32.0008 -32.0008,-32.0008l-190.001 0z"/>
  <path class="fil0" d="M846.04 326.041c-8.83583,-15.2563 -28.3689,-20.4603 -43.6252,-11.6244 -15.2563,8.83583 -20.4603,28.3689 -11.6244,43.6252l57.3414 99.3178c8.83583,15.2563 28.3689,20.4603 43.6252,11.6244 15.2563,-8.83583 20.4603,-28.3689 11.6244,-43.6252l-57.3414 -99.3178z"/>
  <path class="fil0" d="M1257.21 358.042c8.83583,-15.2563 3.63189,-34.7894 -11.6244,-43.6252 -15.2563,-8.83583 -34.7894,-3.63189 -43.6252,11.6244l-57.3414 99.3178c-8.83583,15.2563 -3.63189,34.7894 11.6244,43.6252 15.2563,8.83583 34.7894,3.63189 43.6252,-11.6244l57.3414 -99.3178z"/>
  <path class="fil0" d="M1056 290.17c0,-17.6728 -14.328,-32.0008 -32.0008,-32.0008 -17.6728,0 -32.0008,14.328 -32.0008,32.0008l0 151.253c0,17.6728 14.328,32.0008 32.0008,32.0008 17.6728,0 32.0008,-14.328 32.0008,-32.0008l0 -151.253z"/>
  <path class="fil0" d="M885.458 633.587l277.083 0c17.6728,0 32.0008,14.328 32.0008,32.0008l0 110.418c0,17.6728 -14.328,32.0008 -32.0008,32.0008l-277.083 0c-17.6728,0 -32.0008,-14.328 -32.0008,-32.0008l0 -110.418c0,-17.6728 14.328,-32.0008 32.0008,-32.0008zm245.082 64.0016l-213.082 0 0 46.4162 213.082 0 0 -46.4162z"/>
 </g>
 <rect class="fil1" width="2048" height="2048"/>
</svg>
