<svg id="Layer_2" data-name="Layer 2" xmlns="http://www.w3.org/2000/svg" viewBox="0 0 39.03 55.24"><defs><style>.cls-1{fill:none;stroke:#000;stroke-linecap:round;stroke-miterlimit:10;}</style></defs><path class="cls-1" d="M27.39,56.26" transform="translate(-9.26 -0.94)"/><path d="M33.29,56.18c4.27-2.15,8.6-6,10.55-9.22,2.92-4.82,4.21-7.69,4.45-13.85S44.63,19,42.87,16.22s-7.36-8-7.36-8a22.83,22.83,0,0,1,2,5.6,8.86,8.86,0,0,1-.1,3.38S35.51,10.25,31.34,5.8,24.4.94,24.4.94a49.84,49.84,0,0,1-1.95,11.53A49.07,49.07,0,0,1,18,22.24s.23-.28-.88-4.12a14.35,14.35,0,0,0-2.5-5.37,45.53,45.53,0,0,1-.46,7.45c-.56,2.82-3,6.16-3.84,9.63a43.31,43.31,0,0,0-1.07,7.36c0,8.62,7.57,15.45,13.07,18.66a19,19,0,0,1-3.81-11.49c.09-6.8,2.36-8.65,4.35-11.48l2-2.82a6.73,6.73,0,0,1,.93,3.1,13.56,13.56,0,0,0,.69,3.24,16.58,16.58,0,0,0,1.84-6.34,44,44,0,0,0,0-6.2s7.4,5.09,8.88,11.2.79,7.73.14,11.66S33.29,56.18,33.29,56.18Z" transform="translate(-9.26 -0.94)"/></svg>