<?xml version="1.0" standalone="no"?>
<!DOCTYPE svg PUBLIC "-//W3C//DTD SVG 20010904//EN"
 "http://www.w3.org/TR/2001/REC-SVG-20010904/DTD/svg10.dtd">
<svg version="1.0" xmlns="http://www.w3.org/2000/svg"
 width="1280.000000pt" height="1280.000000pt" viewBox="0 0 1280.000000 1280.000000"
 preserveAspectRatio="xMidYMid meet">
<metadata>
Created by potrace 1.15, written by Peter Selinger 2001-2017
</metadata>
<g transform="translate(0.000000,1280.000000) scale(0.100000,-0.100000)"
fill="#000000" stroke="none">
<path d="M11241 8109 c-271 -58 -564 -218 -911 -498 -368 -296 -560 -417 -825
-516 -295 -111 -619 -116 -920 -13 -249 84 -471 218 -796 479 -80 65 -195 151
-255 192 -567 389 -1112 468 -1676 241 -220 -88 -427 -217 -703 -439 -306
-246 -562 -400 -795 -479 -271 -91 -558 -90 -827 5 -239 85 -461 223 -828 518
-377 302 -681 456 -1010 508 -131 21 -373 13 -496 -16 -271 -62 -582 -223
-863 -446 -47 -38 -86 -72 -86 -77 0 -11 280 -428 288 -428 2 0 48 33 101 74
507 388 882 458 1315 248 160 -78 291 -166 521 -351 236 -190 430 -320 627
-421 223 -114 394 -172 618 -211 106 -19 383 -16 500 4 385 66 763 260 1215
622 209 168 346 260 490 330 203 99 352 135 552 135 335 0 615 -123 1023 -451
424 -340 748 -519 1105 -609 164 -42 280 -53 483 -48 286 8 495 64 797 213
206 101 411 236 635 416 227 183 346 270 455 335 292 171 519 202 786 104 144
-52 333 -168 522 -320 48 -38 91 -70 95 -70 4 0 72 97 152 216 l145 215 -25
20 c-364 290 -605 428 -885 506 -129 36 -387 42 -524 12z"/>
<path d="M11276 6634 c-219 -40 -480 -162 -741 -348 -38 -28 -146 -111 -240
-186 -364 -290 -581 -420 -841 -506 -158 -51 -259 -68 -424 -68 -228 0 -404
42 -640 155 -201 97 -336 185 -590 389 -248 198 -368 278 -571 379 -508 253
-993 254 -1504 2 -175 -86 -336 -192 -530 -347 -296 -237 -424 -323 -620 -419
-238 -117 -407 -159 -630 -158 -212 1 -375 42 -600 153 -188 92 -343 198 -635
433 -341 276 -648 436 -960 503 -118 26 -389 26 -514 1 -214 -43 -462 -152
-686 -302 -167 -111 -295 -213 -294 -233 0 -10 64 -111 141 -225 l141 -208 34
29 c18 16 76 60 128 99 477 349 841 406 1266 198 145 -71 280 -163 489 -330
198 -159 350 -268 490 -352 600 -360 1161 -407 1751 -145 238 106 469 256 788
514 194 157 399 283 566 347 256 99 535 106 795 20 202 -67 391 -181 670 -405
322 -258 636 -446 905 -541 708 -251 1374 -75 2155 569 280 231 474 351 665
413 123 40 283 46 415 16 167 -39 385 -161 619 -347 l105 -83 146 215 c171
252 172 209 -8 346 -398 303 -726 440 -1051 437 -61 0 -147 -7 -190 -15z"/>
<path d="M11300 5155 c-299 -49 -631 -227 -1015 -545 -364 -302 -694 -480
-1005 -546 -41 -8 -131 -18 -200 -21 -393 -18 -784 146 -1260 527 -277 222
-434 327 -626 416 -669 310 -1303 197 -1990 -358 -247 -199 -344 -268 -517
-368 -359 -206 -697 -266 -1029 -181 -275 69 -526 211 -878 496 -413 334 -692
486 -1024 557 -143 30 -389 30 -529 0 -230 -50 -457 -152 -687 -306 -139 -94
-290 -211 -290 -225 0 -6 271 -415 285 -429 2 -2 46 30 98 71 258 202 483 316
705 358 38 7 112 10 195 6 160 -6 257 -31 427 -113 148 -71 273 -155 487 -326
195 -157 311 -242 431 -317 310 -194 593 -304 879 -342 131 -17 399 -6 528 21
369 78 726 268 1155 614 319 258 548 383 812 442 101 23 345 23 448 0 119 -26
196 -54 325 -116 146 -70 275 -156 460 -304 333 -267 541 -400 801 -512 537
-233 1046 -217 1589 51 241 118 397 222 702 466 357 286 563 402 781 440 87
15 238 6 332 -21 157 -45 370 -168 585 -338 55 -44 103 -78 107 -76 3 2 70 99
148 215 138 205 142 212 124 229 -45 43 -229 180 -339 253 -135 89 -342 194
-455 231 -178 58 -396 78 -560 51z"/>
</g>
</svg>
