<?xml version="1.0" encoding="utf-8"?>
<!-- Generator: Adobe Illustrator 24.1.2, SVG Export Plug-In . SVG Version: 6.00 Build 0)  -->
<svg version="1.1" id="Layer_1" xmlns="http://www.w3.org/2000/svg" xmlns:xlink="http://www.w3.org/1999/xlink" x="0px" y="0px"
         viewBox="0 0 51.4 72.3" style="enable-background:new 0 0 51.4 72.3;" xml:space="preserve">
<style type="text/css">
        .st0{fill:#2B2A29;}
</style>
<g id="Layer_x0020_1">
        <path class="st0" d="M31.5,53.9H19c0-1.8-0.1-2.9-0.1-3.3c0-4,0.7-7.3,2-10c1.3-2.6,4-5.5,8-8.8c4-3.2,6.4-5.4,7.2-6.4
                c1.2-1.6,1.8-3.3,1.8-5.3c0-2.7-1.1-5-3.2-6.9c-2.1-1.9-5-2.8-8.6-2.8c-3.5,0-6.4,1-8.7,3c-2.3,2-4,5-4.8,9.1L0,21
                c0.3-5.8,2.8-10.8,7.4-14.8C12,2,18.1,0,25.6,0c7.9,0,14.1,2.1,18.8,6.2c4.6,4.1,7,8.9,7,14.4c0,3-0.9,5.9-2.6,8.6
                c-1.7,2.7-5.4,6.4-11,11c-2.9,2.4-4.7,4.4-5.4,5.8S31.4,50.1,31.5,53.9z M19,72.3V58.6h13.7v13.7H19z"/>
</g>
</svg>
