<svg id="Layer_1" data-name="Layer 1" xmlns="http://www.w3.org/2000/svg" viewBox="0 0 128 128"><title>SHARE</title><path d="M102.723,82.194a20.455,20.455,0,0,0-14.791,6.33L45.514,67.311a18.906,18.906,0,0,0,0-6.621L87.931,39.476A20.864,20.864,0,1,0,82.487,28.59L40.067,49.8a20.528,20.528,0,1,0,0,28.4l42.42,21.21a20.515,20.515,0,1,0,20.236-17.216Zm0-73.944A17.028,17.028,0,1,1,85.694,25.278,17.047,17.047,0,0,1,102.723,8.25ZM83.37,32.061a20.472,20.472,0,0,0,2.3,4.631L44.63,57.218a20.479,20.479,0,0,0-2.3-4.635ZM25.277,81.028A17.028,17.028,0,1,1,42.306,64,17.047,17.047,0,0,1,25.277,81.028Zm17.049-5.611a20.479,20.479,0,0,0,2.3-4.635L85.672,91.307a20.472,20.472,0,0,0-2.3,4.631Zm60.4,44.333a17.028,17.028,0,1,1,17.027-17.028A17.047,17.047,0,0,1,102.723,119.75Z"/></svg>