<?xml version="1.0" encoding="utf-8"?>
<!-- Generator: Adobe Illustrator 24.1.2, SVG Export Plug-In . SVG Version: 6.00 Build 0)  -->
<svg version="1.1" xmlns="http://www.w3.org/2000/svg" xmlns:xlink="http://www.w3.org/1999/xlink" x="0px" y="0px"
	 viewBox="0 0 56.69 56.69" style="enable-background:new 0 0 56.69 56.69;" xml:space="preserve">
<style type="text/css">
	.st0{fill:none;stroke:#000000;stroke-width:2;stroke-linecap:round;stroke-miterlimit:10;}
</style>
<g id="Layer_1">
</g>
<g id="Layer_4">
	<path class="st0" d="M43.58,15.5c-2.29,0-4.15-1.89-4.15-4.21c0-2.91,2.33-5.27,5.19-5.27c3.59,0,6.49,2.95,6.49,6.58
		c0,4.54-3.63,8.23-8.11,8.23H1.87"/>
	<path class="st0" d="M55.05,14.6c0,6.23-4.16,11.56-11.03,11.23H1.87"/>
	<path class="st0" d="M43.58,41.19c-2.29,0-4.15,1.89-4.15,4.21c0,2.91,2.33,5.27,5.19,5.27c3.59,0,6.49-2.95,6.49-6.58
		c0-4.54-3.63-8.23-8.11-8.23H1.87"/>
	<path class="st0" d="M55.05,42.09c0-6.23-4.16-11.56-11.03-11.23H1.87"/>
</g>
<g id="Layer_2">
</g>
<g id="Layer_3">
</g>
</svg>
