<svg id="Layer_2" data-name="Layer 2" xmlns="http://www.w3.org/2000/svg" viewBox="0 0 54.6 47.93"><circle cx="26.93" cy="31.62" r="3.2"/><path d="M25.37,30.49a3,3,0,0,1,2.14-.77,4.89,4.89,0,0,1,2.52.59s1.56-1.89.78-13.08S27.2,2.62,27.2,2.62s-2.58,4.66-3,14.1,1.12,13.67,1.12,13.67" transform="translate(-0.91 -2.62)"/><path d="M26,38.2a3,3,0,0,1-1.74-1.46,4.92,4.92,0,0,1-.74-2.49s-2.42-.41-11.72,5.87S.91,50.55.91,50.55s5.32-.09,13.72-4.45S25.9,38.31,25.9,38.31" transform="translate(-0.91 -2.62)"/><path d="M32.29,33.93a3,3,0,0,1-.4,2.24,4.89,4.89,0,0,1-1.78,1.89s.86,2.29,11,7.21,14.46,4.18,14.46,4.18S52.77,44.89,44.8,39.8s-12.39-5.87-12.39-5.87" transform="translate(-0.91 -2.62)"/></svg>