<svg id="Layer_1" enable-background="new 0 0 510 510" height="512" viewBox="0 0 510 510" width="512" xmlns="http://www.w3.org/2000/svg"><g><path d="m270 450h178.699l-46.667-210h-294.064l-46.667 210h178.699v30h-60v30h150v-30h-60zm-79.295-120h49.295v30h-54.59zm-35.759 30h-42.914l6.667-30h41.542zm243.022 0h-44.914l-5.295-30h43.542zm-75.377 0h-52.591v-30h47.296zm5.295 30 5.295 30h-63.181v-30zm-57.886-90v-30h36.706l5.295 30zm-30 0h-44l5.295-30h38.705zm0 90v30h-65.181l5.296-30zm123.644 30-5.295-30h46.285l6.667 30zm20.991-120h-42.171l-5.295-30h40.799zm-213.803-30-5.295 30h-40.172l6.667-30zm-65.466 120h44.285l-5.295 30h-45.657z"/><path d="m255 210c41.355 0 75-33.645 75-75s-33.645-75-75-75-75 33.645-75 75 33.645 75 75 75zm0-120c24.814 0 45 20.187 45 45s-20.186 45-45 45-45-20.186-45-45 20.186-45 45-45z"/><path d="m240 0h30v30h-30z"/><path d="m360 120h30v30h-30z"/><path d="m120 120h30v30h-30z"/><path d="m155.148 35.148h30v30h-30z" transform="matrix(.707 -.707 .707 .707 14.376 135)"/><path d="m324.853 35.148h30v30h-30z" transform="matrix(.707 -.707 .707 .707 64.081 255)"/></g></svg>