<svg id="Capa_1" enable-background="new 0 0 500.54 500.54" height="512" viewBox="0 0 500.54 500.54" width="512" xmlns="http://www.w3.org/2000/svg"><g id="XMLID_197_"><path id="XMLID_505_" d="m250.63 340.172-41.966 19.097-3.624 141.271h91.114l-3.634-141.393z"/><path id="XMLID_565_" d="m250.063 247.878c-6.455 0-11.707 5.252-11.707 11.707 0 6.456 5.252 11.708 11.707 11.708 6.456 0 11.708-5.252 11.708-11.708-.001-6.455-5.253-11.707-11.708-11.707z"/><path id="XMLID_600_" d="m449.369 397.259c2.641 1.2 5.432 1.805 8.307 1.805 7.156 0 13.825-3.849 17.402-10.045 5.193-8.994 2.739-20.334-5.707-26.377l-178.55-127.74-21.183-216.77c-1.01-10.337-9.604-18.132-19.99-18.132s-18.98 7.795-19.99 18.131l-21.351 218.499-177.137 126.73c-8.447 6.043-10.901 17.383-5.708 26.376 3.578 6.197 10.246 10.046 17.403 10.046 2.875 0 5.671-.607 8.311-1.806l199.426-90.751zm-199.306-95.966c-22.998 0-41.707-18.71-41.707-41.708s18.709-41.707 41.707-41.707 41.708 18.709 41.708 41.707-18.711 41.708-41.708 41.708z"/><path id="XMLID_652_" d="m149.64 133.729-18.717-23.445c-37.42 29.874-62.068 72.249-69.404 119.32l29.643 4.62c6.176-39.631 26.944-75.321 58.478-100.495z"/><path id="XMLID_653_" d="m409.388 234.223 29.643-4.62c-7.336-47.071-31.984-89.446-69.404-119.32l-18.717 23.445c31.533 25.175 52.302 60.865 58.478 100.495z"/></g></svg>